<?xml version="1.0" encoding="UTF-8"?>
<svg width="32" height="32" viewBox="0 0 32 32" fill="none" xmlns="http://www.w3.org/2000/svg">
  <rect width="32" height="32" rx="8" fill="#3B82F6"/>
  <path d="M10 8H22C23.1046 8 24 8.89543 24 10V22C24 23.1046 23.1046 24 22 24H10C8.89543 24 8 23.1046 8 22V10C8 8.89543 8.89543 8 10 8Z" fill="white"/>
  <path d="M14 10H18C19.1046 10 20 10.8954 20 12V20C20 21.1046 19.1046 22 18 22H14C12.8954 22 12 21.1046 12 20V12C12 10.8954 12.8954 10 14 10Z" fill="#3B82F6"/>
</svg> 